<svg width="18" height="18" viewBox="0 0 18 18" fill="none" xmlns="http://www.w3.org/2000/svg">
    <path d="M9.3125 2C7.86623 2 6.45243 2.42887 5.2499 3.23238C4.04736 4.03589 3.1101 5.17794 2.55663 6.51413C2.00317 7.85031 1.85836 9.32061 2.14051 10.7391C2.42267 12.1576 3.11911 13.4605 4.14178 14.4832C5.16446 15.5059 6.46742 16.2023 7.88591 16.4845C9.30439 16.7666 10.7747 16.6218 12.1109 16.0684C13.4471 15.5149 14.5891 14.5776 15.3926 13.3751C16.1961 12.1726 16.625 10.7588 16.625 9.3125C16.623 7.37373 15.8519 5.51496 14.481 4.14404C13.11 2.77313 11.2513 2.00205 9.3125 2ZM7.45836 12.125H11.1666C10.7891 13.4145 10.1563 14.5768 9.3125 15.4923C8.46875 14.5768 7.83594 13.4145 7.45836 12.125ZM7.20313 11C7.01657 9.88273 7.01657 8.74227 7.20313 7.625H11.4219C11.6084 8.74227 11.6084 9.88273 11.4219 11H7.20313ZM3.125 9.3125C3.12451 8.74187 3.20331 8.17394 3.35914 7.625H6.06336C5.89555 8.74374 5.89555 9.88126 6.06336 11H3.35914C3.20331 10.4511 3.12451 9.88313 3.125 9.3125ZM11.1666 6.5H7.45836C7.83594 5.21047 8.46875 4.0482 9.3125 3.13273C10.1563 4.0482 10.7891 5.21047 11.1666 6.5ZM12.5616 7.625H15.2659C15.5781 8.72834 15.5781 9.89666 15.2659 11H12.5616C12.7295 9.88126 12.7295 8.74374 12.5616 7.625ZM14.8229 6.5H12.3317C12.0447 5.37044 11.5626 4.29967 10.9072 3.33594C11.7445 3.56095 12.5255 3.95871 13.1998 4.50364C13.8742 5.04856 14.4271 5.7286 14.8229 6.5ZM7.71782 3.33594C7.06243 4.29967 6.58035 5.37044 6.29328 6.5H3.80211C4.19792 5.7286 4.75079 5.04856 5.42517 4.50364C6.09954 3.95871 6.8805 3.56095 7.71782 3.33594ZM3.80211 12.125H6.29328C6.58035 13.2546 7.06243 14.3253 7.71782 15.2891C6.8805 15.064 6.09954 14.6663 5.42517 14.1214C4.75079 13.5764 4.19792 12.8964 3.80211 12.125ZM10.9072 15.2891C11.5626 14.3253 12.0447 13.2546 12.3317 12.125H14.8229C14.4271 12.8964 13.8742 13.5764 13.1998 14.1214C12.5255 14.6663 11.7445 15.064 10.9072 15.2891Z" fill="#202124"/>
</svg>