<svg width="327" height="82" viewBox="0 0 327 82" fill="none" xmlns="http://www.w3.org/2000/svg">
    <g clip-path="url(#clip0_2002_981)">
        <g clip-path="url(#clip1_2002_981)">
            <path d="M30.959 5.88863C30.4137 16.1386 30.1954 27.8062 30.1954 38.9285L38.2642 38.6005C43.9345 38.3832 46.5513 34.1305 47.6429 27.6965H51.459V54.4121H47.6419C46.5523 47.9792 43.9345 43.7265 38.2642 43.5082L30.304 43.2899C30.304 51.4683 30.5224 59.2102 30.959 65.7527C31.3946 72.9492 33.1392 75.7844 37.9372 76.6567L42.4083 77.4203V80.4738H-0.00930786V77.4193L3.69812 76.6567C8.49512 75.6758 10.459 72.9492 11.2216 65.7527C11.9852 54.1938 12.4209 29.7691 11.2216 16.2473C10.459 9.05075 8.60479 5.88863 3.69812 5.34333L-0.00930786 4.90668V1.52725H66.1801L66.507 24.0998L62.6899 24.8624C58.9825 12.7592 53.7489 5.88965 43.6075 5.88965L30.959 5.88863Z" fill="black"/>
            <path d="M87.1536 22.5715C105.908 22.5715 115.286 35.3297 115.286 52.2309C115.286 68.4782 104.818 82 86.063 82C67.1989 82 57.8212 69.1332 57.8212 52.2309C57.8212 36.0933 68.3982 22.5715 87.1536 22.5715ZM86.063 26.3886C77.7759 26.3886 75.485 37.6196 75.485 52.2309C75.485 66.5164 79.3021 78.1839 86.8256 78.1839C95.4407 78.1839 97.6209 66.952 97.6209 52.2309C97.6209 37.9465 93.9135 26.3886 86.063 26.3886Z" fill="black"/>
            <path d="M163.608 24.3161L157.611 39.6911C150.087 34.7844 141.909 36.8559 139.946 39.4738C139.619 48.5245 139.619 62.8089 140.382 69.8958C140.709 74.4765 141.909 76.875 145.617 77.0933L150.087 77.4203V80.4738H115.194V77.4193L117.81 77.0933C121.191 76.6567 122.717 74.4765 123.044 69.8968C123.481 62.0453 123.808 46.2336 123.044 37.2926C122.717 32.3859 121.191 30.5317 117.81 30.096L115.194 29.768V27.4782L140.382 22.5715L139.946 35.7663C145.944 22.2445 157.284 20.5 163.608 24.3171V24.3161Z" fill="black"/>
            <path d="M199.866 22.5715C215.568 22.5715 222.764 33.3668 222.764 49.2871C222.764 68.8062 209.897 82 188.416 82C181.547 82 174.349 80.8007 167.589 79.3832C168.025 71.423 168.352 23.3351 167.589 14.2854C166.826 9.81335 165.735 7.74182 162.355 7.19652L159.738 6.7609V4.5797L184.926 0C184.491 3.81607 184.491 14.721 184.491 26.7156C189.289 23.8804 194.414 22.5715 199.866 22.5715ZM189.507 78.1839C199.974 78.1839 205.099 66.1883 205.099 50.923C205.099 39.1458 201.719 29.3324 191.579 29.3324C189.724 29.3324 187.108 29.6604 184.491 30.5317C184.164 50.0507 184.491 72.2953 184.926 77.5289C186.017 77.9656 188.089 78.1839 189.507 78.1839ZM227.272 52.6676C227.272 37.2926 237.085 22.5715 256.169 22.5715C271.98 22.5715 279.503 34.2391 279.503 49.6141H244.61C244.173 63.5715 250.934 73.7119 264.456 73.7119C270.453 73.7119 273.506 72.1856 277.213 69.5688L278.74 71.423C275.033 76.6567 266.746 82 256.169 82C239.267 82 227.272 69.8968 227.272 52.6676ZM244.61 45.4711L262.275 45.143C262.275 37.6195 261.076 26.3886 254.751 26.3886C248.317 26.3886 244.937 36.8559 244.61 45.4711ZM323.311 25.625L323.746 40.2364L321.129 41C317.749 30.8586 313.169 26.7156 306.408 26.7156C301.938 26.7156 298.558 30.096 298.558 35.0027C298.558 39.9094 302.265 42.5262 312.842 46.6703C322.547 50.3777 326.691 54.9574 326.691 62.8089C326.691 74.4765 317.313 82 302.701 82C295.504 82 287.217 80.4728 282.746 78.6196L282.419 62.0453L285.036 61.2817C289.18 72.5136 294.414 76.6567 301.502 76.6567C307.499 76.6567 310.879 72.5136 310.879 68.0426C310.879 63.5715 308.263 60.9547 298.885 57.5742C289.834 54.5208 283.51 50.3777 283.51 40.672C283.51 30.8586 292.124 22.5715 306.081 22.5715C312.842 22.5715 318.839 23.6621 323.311 25.625Z" fill="black"/>
            <path d="M200.42 17.425V1.30176H204.389L207.569 11.4042L210.68 1.30176H214.672V17.425H211.628V5.76666L207.862 17.425H206.915L203.149 5.76666V17.425H200.42ZM217.531 17.425V1.30176H220.62V17.425H217.531ZM223.494 1.30176H228.184C232.807 1.30176 235.107 3.64696 235.107 7.84126V10.8179C235.107 14.9445 232.83 17.425 228.184 17.425H223.494V1.30176ZM228.027 3.69206H226.561V15.0122H228.072C230.778 15.0122 231.928 13.6141 231.928 10.8179V7.86381C231.928 5.11271 230.868 3.69206 228.027 3.69206ZM237.408 1.30176H242.099C246.722 1.30176 249.022 3.64696 249.022 7.84126V10.8179C249.022 14.9445 246.744 17.425 242.099 17.425H237.408V1.30176ZM241.941 3.69206H240.475V15.0122H241.986C244.692 15.0122 245.842 13.6141 245.842 10.8179V7.86381C245.842 5.11271 244.782 3.69206 241.941 3.69206ZM251.324 17.425V1.30176H254.391V14.9896H259.983V17.425H251.324ZM261.957 17.425V1.30176H270.842V3.71461H265.024V7.93146H269.692V10.2316H265.024V15.0122H271.18V17.425H261.957ZM277.213 17.425V1.30176H286.098V3.71461H280.28V7.93146H284.948V10.2316H280.28V15.0122H286.436V17.425H277.213ZM296.919 17.425L296.017 13.7268H291.259L290.379 17.425H287.515L291.732 1.30176H295.904L300.076 17.425H296.919ZM293.627 3.84991L291.8 11.4944H295.476L293.627 3.84991ZM306.501 17.6505C302.893 17.6505 301.043 15.8691 300.931 12.667H303.885C303.975 14.4033 304.584 15.3279 306.501 15.3279C307.831 15.3279 308.71 14.5386 308.71 13.1405C308.71 11.6071 307.921 11.0885 305.847 10.4345C302.802 9.48741 301.269 8.33736 301.269 5.49606C301.269 2.85771 303.208 1.07626 306.23 1.07626C309.319 1.07626 311.191 2.54201 311.371 5.58626H308.485C308.35 4.00776 307.56 3.39891 306.23 3.39891C304.922 3.39891 304.2 4.12051 304.2 5.27056C304.2 6.53336 304.742 7.07456 306.884 7.75106C309.838 8.63051 311.71 9.69036 311.71 12.8699C311.71 15.8014 309.68 17.6505 306.501 17.6505ZM316.335 17.425V3.71461H312.66V1.30176H323.123V3.71461H319.425L319.402 17.425H316.335Z" fill="black"/>
        </g>
    </g>
    <defs>
        <clipPath id="clip0_2002_981">
            <rect width="326.956" height="82" fill="white"/>
        </clipPath>
        <clipPath id="clip1_2002_981">
            <rect width="326.975" height="82" fill="white" transform="translate(-0.00930786)"/>
        </clipPath>
    </defs>
</svg>